<svg width="80" height="88" viewBox="0 0 80 88" fill="none" xmlns="http://www.w3.org/2000/svg">
<path d="M1 24.9564C1 23.4976 1.79413 22.1545 3.07232 21.4515L38.0723 2.20149C39.2727 1.54131 40.7273 1.54131 41.9277 2.20149L76.9277 21.4515C78.2059 22.1545 79 23.4976 79 24.9564V63.0436C79 64.5024 78.2059 65.8455 76.9277 66.5485L41.9277 85.7985C40.7273 86.4587 39.2727 86.4587 38.0723 85.7985L20.4819 76.1238L3.07233 66.5485C1.79413 65.8455 1 64.5024 1 63.0436V24.9564Z" stroke="#F9FAFB" stroke-width="2"/>
<path d="M31.4286 60.0002C29.535 60.0002 28 58.43 28 56.4931V31.9436C28 30.0067 29.535 28.4365 31.4286 28.4365H43.4286L52 37.2042V56.4931C52 58.43 50.465 60.0002 48.5714 60.0002H31.4286Z" stroke="#F9FAFB" stroke-width="2" stroke-linecap="round" stroke-linejoin="round"/>
<path d="M43.4286 38.1818L52.0001 38.1818L41.7144 28V36.4848C41.7144 37.4221 42.4819 38.1818 43.4286 38.1818Z" fill="#F9FAFB"/>
<path d="M35 48.7997L40 53.8906M40 53.8906L45 48.7997M40 53.8906L40 43.7088" stroke="#F9FAFB" stroke-width="2" stroke-linecap="round" stroke-linejoin="round"/>
</svg>
