<svg width="105" height="57" viewBox="0 0 105 57" fill="none" xmlns="http://www.w3.org/2000/svg">
<g clip-path="url(#clip0_703_8274)">
<g clip-path="url(#clip1_703_8274)">
<path d="M49.999 42.7729L36.9645 50.2046L49.9717 14.2656L49.999 42.7729Z" fill="#71A5FF"/>
<path d="M25.0479 0L38.0772 7.44627L0.022583 14.3018L25.0479 0Z" fill="#71A5FF"/>
<path d="M49.972 14.2666L49.9857 29.127L25.0485 0L49.972 14.2666Z" fill="#4473C5"/>
<path d="M0 42.7587V27.8848L25.0505 57.0004L0 42.7587Z" fill="#71A5FF"/>
<path d="M0.0230774 14.3015L13.0429 6.85938L0 42.7569L0.0230774 14.3015Z" fill="#4473C5"/>
<path d="M25.0514 57.0006L12.0159 49.5885L50.0002 42.7744L25.0514 57.0006Z" fill="#4473C5"/>
</g>
<g clip-path="url(#clip2_703_8274)">
<path d="M61.8257 16.4769C61.824 16.7605 61.8619 17.043 61.9384 17.3167C62.0078 17.5702 62.1264 17.8083 62.2879 18.018C62.4473 18.2219 62.652 18.3878 62.8866 18.503C63.1558 18.6309 63.4516 18.6966 63.7509 18.6951C63.9514 18.7016 64.1518 18.6787 64.3454 18.6273C64.5308 18.5803 64.706 18.5009 64.8624 18.3929C65.0139 18.2862 65.1396 18.1482 65.2305 17.9887C65.3298 17.8075 65.3883 17.6077 65.4021 17.4026H63.6527V16.2748H66.7959C66.8021 16.518 66.7989 16.7676 66.7865 17.0236C66.7738 17.2756 66.7392 17.5261 66.6831 17.7724C66.6277 18.0163 66.5452 18.2535 66.4371 18.4798C66.3306 18.7039 66.1862 18.9089 66.0101 19.0861C65.7465 19.3527 65.4298 19.5635 65.0795 19.7056C64.6524 19.8721 64.1951 19.9522 63.7354 19.9411C63.2405 19.9497 62.7487 19.8632 62.2879 19.6864C61.8836 19.5292 61.5209 19.2846 61.2271 18.9709C60.9351 18.6531 60.714 18.2794 60.5778 17.8735C60.4258 17.4248 60.3511 16.9545 60.3565 16.4819C60.3507 16 60.4254 15.5204 60.5778 15.0621C60.7125 14.6541 60.9353 14.2791 61.2312 13.9626C61.5288 13.6533 61.8924 13.4118 62.2962 13.2552C62.757 13.0787 63.2488 12.9922 63.7437 13.0006C64.1065 12.9979 64.4678 13.0455 64.8169 13.142C65.1425 13.2307 65.4488 13.377 65.7206 13.5735C65.9982 13.7767 66.2273 14.0366 66.3919 14.335C66.5565 14.6334 66.6527 14.9632 66.6738 15.3016H65.2987C65.2667 15.1412 65.2018 14.9888 65.108 14.8535C65.0142 14.7182 64.8934 14.6029 64.7528 14.5144C64.438 14.3115 64.0643 14.2139 63.6879 14.2365C63.3942 14.24 63.1052 14.3091 62.8431 14.4386C62.6138 14.558 62.4154 14.727 62.2631 14.9327C62.1084 15.1459 61.9968 15.386 61.9343 15.6401C61.862 15.9134 61.8255 16.1946 61.8257 16.4769Z" fill="#4473C5"/>
<path d="M72.8666 13.084V14.3219H69.3202V15.9065H72.4148V17.1444H69.3202V18.6522H72.8666V19.881H67.8965V13.084H72.8666Z" fill="#4473C5"/>
<path d="M75.3219 13.084L78.6222 17.6315V13.084H80.0159V19.881H78.6511L75.3508 15.3497V19.881H73.9561V13.084H75.3219Z" fill="#4473C5"/>
<path d="M86.4603 13.084V14.3219H82.9109V15.9065H86.0127V17.1444H82.9109V18.6522H86.4572V19.881H81.4902V13.084H86.4603Z" fill="#4473C5"/>
<path d="M90.3197 13.084C90.5037 13.084 90.6868 13.084 90.8698 13.0981C91.0517 13.1076 91.2326 13.1316 91.4105 13.1699C91.5883 13.2086 91.7615 13.2652 91.9275 13.3386C92.1508 13.4387 92.3509 13.5823 92.5156 13.7606C92.6802 13.9389 92.8058 14.1481 92.8849 14.3755C92.9822 14.6548 93.0288 14.9486 93.0224 15.2435C93.0276 15.5909 92.9571 15.9354 92.8156 16.2541C92.6862 16.5226 92.5002 16.7612 92.2697 16.9544C92.0575 17.1225 91.8106 17.2439 91.546 17.3101L93.0886 19.883H91.4922L90.0871 17.4445H88.9746V19.883H87.5498V13.084H90.3197ZM90.3301 16.2713C90.4981 16.2721 90.6658 16.2559 90.8305 16.2228C90.9755 16.1957 91.1141 16.1423 91.2389 16.0651C91.3545 15.9897 91.449 15.8872 91.5139 15.767C91.5878 15.6191 91.6263 15.4567 91.6266 15.2921C91.639 15.1211 91.6085 14.9497 91.5377 14.7928C91.4779 14.6679 91.3824 14.5626 91.2627 14.4897C91.1418 14.4165 91.0065 14.369 90.8656 14.3502C90.6978 14.327 90.5285 14.3159 90.359 14.3169H88.9746V16.2753L90.3301 16.2713Z" fill="#4473C5"/>
<path d="M95.5358 18.5845L95.0343 19.881H93.4834L96.1716 13.084H97.7825L100.435 19.881H98.8733L98.3915 18.5845H95.5358ZM95.9493 17.3556H97.9727L96.9719 14.5574L95.9493 17.3556Z" fill="#4473C5"/>
<path d="M102.587 18.6522H105.999V19.881H101.173V13.084H102.587V18.6522Z" fill="#4473C5"/>
<path d="M62.0524 30.105L61.5509 31.4015H60L62.6882 24.6045H64.3001L66.9522 31.4015H65.3909L64.9091 30.105H62.0524ZM62.4659 28.8761H64.4893L63.4864 26.0779L62.4659 28.8761Z" fill="#71A5FF"/>
<path d="M69.232 24.6045L71.3144 27.8009L73.3822 24.6045H74.8949V31.4015H73.4856V26.7166L71.609 29.6472H70.9711L69.0945 26.7166V31.4015H67.6904V24.6045H69.232Z" fill="#71A5FF"/>
<path d="M77.4515 27.9824C77.4508 28.2643 77.4891 28.5451 77.5652 28.8171C77.6337 29.0717 77.7502 29.3115 77.9085 29.5245C78.064 29.7308 78.2655 29.8998 78.4978 30.0186C78.7973 30.1557 79.1264 30.2195 79.4568 30.2045C79.7871 30.1896 80.1088 30.0963 80.394 29.9327C80.5265 29.8454 80.6396 29.7328 80.7265 29.6017C80.8134 29.4706 80.8723 29.3237 80.8996 29.1698H82.2748C82.2531 29.5063 82.1556 29.8341 81.9891 30.1295C81.8227 30.4249 81.5916 30.6807 81.3122 30.8786C81.036 31.0741 80.7265 31.2202 80.3982 31.3101C80.0533 31.407 79.6962 31.4556 79.3374 31.4546C78.8449 31.4638 78.3557 31.3755 77.8992 31.1949C77.499 31.0333 77.14 30.7876 76.8477 30.4754C76.5573 30.1586 76.3382 29.7858 76.2046 29.381C76.0572 28.9338 75.9842 28.4663 75.9885 27.9965C75.9843 27.5286 76.059 27.0633 76.2097 26.6191C76.3466 26.2111 76.5687 25.8353 76.8621 25.5156C77.1562 25.2005 77.5167 24.9516 77.9188 24.786C78.3744 24.6017 78.8641 24.5116 79.357 24.5212C79.7184 24.5175 80.0786 24.561 80.4282 24.6506C80.7491 24.7343 81.0518 24.8743 81.3215 25.0639C81.5871 25.2531 81.8069 25.497 81.9656 25.7783C82.1421 26.1008 82.2477 26.4556 82.2758 26.8202H80.9007C80.8374 26.5073 80.6548 26.2295 80.3899 26.0431C80.0861 25.8405 79.7234 25.7395 79.356 25.7551C79.0593 25.747 78.7649 25.8076 78.4968 25.9319C78.264 26.046 78.0621 26.2122 77.9074 26.417C77.7482 26.6324 77.6317 26.8751 77.5642 27.1325C77.4882 27.4096 77.4503 27.6954 77.4515 27.9824Z" fill="#71A5FF"/>
<path d="M88.2758 24.6045V25.8424H84.7304V27.427H87.824V28.6649H84.7304V30.1727H88.2758V31.4015H83.3057V24.6045H88.2758Z" fill="#71A5FF"/>
<path d="M90.732 24.6045L94.0323 29.152V24.6045H95.4271V31.4015H94.0623L90.762 26.8702V31.4015H89.3672V24.6045H90.732Z" fill="#71A5FF"/>
<path d="M96.2227 25.8424V24.6045H102.013V25.8424H99.8269V31.4005H98.4032V25.8424H96.2227Z" fill="#71A5FF"/>
<path d="M61.826 39.5179C61.8243 39.8015 61.8622 40.0841 61.9387 40.3577C62.008 40.6112 62.1267 40.8493 62.2881 41.059C62.4475 41.2629 62.6522 41.4288 62.8868 41.5441C63.1561 41.6719 63.4518 41.7376 63.7512 41.7361C63.9517 41.7426 64.1521 41.7197 64.3457 41.6684C64.5311 41.6213 64.7062 41.5419 64.8626 41.4339C65.0142 41.3272 65.1399 41.1892 65.2307 41.0297C65.33 40.8485 65.3886 40.6487 65.4023 40.4436H63.6529V39.3158H66.7961C66.8023 39.5597 66.7992 39.8093 66.7868 40.0646C66.774 40.3166 66.7394 40.5671 66.6834 40.8134C66.6279 41.0573 66.5454 41.2945 66.4373 41.5208C66.3308 41.7449 66.1865 41.9499 66.0103 42.1272C65.7467 42.3937 65.43 42.6045 65.0798 42.7466C64.6526 42.9131 64.1954 42.9932 63.7357 42.9821C63.2407 42.9907 62.7489 42.9042 62.2881 42.7274C61.8838 42.5702 61.5212 42.3256 61.2273 42.012C60.9354 41.6941 60.7142 41.3204 60.578 40.9145C60.4261 40.4658 60.3513 39.9956 60.3568 39.5229C60.3509 39.041 60.4257 38.5615 60.578 38.1031C60.7127 37.6951 60.9356 37.3201 61.2315 37.0036C61.5291 36.6943 61.8926 36.4528 62.2964 36.2962C62.7573 36.1197 63.249 36.0332 63.7439 36.0416C64.1067 36.0389 64.468 36.0866 64.8171 36.183C65.1428 36.2718 65.4491 36.418 65.7208 36.6146C65.9985 36.8177 66.2275 37.0776 66.3922 37.376C66.5568 37.6744 66.653 38.0042 66.6741 38.3426H65.299C65.2669 38.1822 65.2021 38.0298 65.1082 37.8945C65.0144 37.7592 64.8936 37.6439 64.753 37.5554C64.4382 37.3525 64.0645 37.255 63.6881 37.2775C63.3944 37.281 63.1055 37.3501 62.8434 37.4796C62.614 37.599 62.4156 37.768 62.2633 37.9738C62.1086 38.1869 61.997 38.427 61.9345 38.6812C61.8623 38.9545 61.8258 39.2356 61.826 39.5179Z" fill="#4473C5"/>
<path d="M70.6664 36.125C70.8494 36.125 71.0334 36.1301 71.2164 36.1391C71.398 36.1487 71.5785 36.1727 71.7561 36.2109C71.934 36.2495 72.1072 36.3061 72.2731 36.3797C72.4443 36.4554 72.6018 36.5578 72.7394 36.6828C72.9651 36.8823 73.1343 37.1354 73.2305 37.4175C73.3286 37.6966 73.3755 37.9905 73.3691 38.2856C73.3732 38.6334 73.3009 38.978 73.1571 39.2961C73.0281 39.5645 72.8424 39.8032 72.6122 39.9965C72.3999 40.1644 72.1531 40.2857 71.8885 40.3522L73.4301 42.925H71.8358L70.4306 40.4866H69.3202V42.925H67.8965V36.125H70.6664ZM70.6757 39.3123C70.8441 39.3132 71.0122 39.2969 71.1771 39.2638C71.3219 39.2368 71.4601 39.1833 71.5845 39.1061C71.7006 39.0313 71.7953 38.9287 71.8595 38.808C71.9344 38.6604 71.973 38.4978 71.9722 38.3331C71.9855 38.1621 71.9553 37.9906 71.8844 37.8339C71.8238 37.7108 71.7283 37.6073 71.6093 37.5357C71.4881 37.4625 71.3525 37.415 71.2113 37.3963C71.0438 37.3731 70.8748 37.362 70.7057 37.3629H69.3202V39.3163L70.6757 39.3123Z" fill="#4473C5"/>
<path d="M77.6292 36.0376C78.1189 36.0298 78.6057 36.1135 79.0632 36.2842C79.4718 36.4403 79.8405 36.6817 80.1437 36.9916C80.4444 37.3054 80.6754 37.6766 80.822 38.082C81.1365 38.9877 81.1365 39.9695 80.822 40.8752C80.6748 41.2866 80.4441 41.6647 80.1437 41.9868C79.8413 42.3061 79.4711 42.5568 79.0591 42.7215C78.1211 43.0641 77.0874 43.0609 76.1517 42.7124C75.7461 42.5474 75.381 42.3001 75.0805 41.9868C74.7835 41.6706 74.5562 41.2981 74.4126 40.8924C74.2559 40.4505 74.1779 39.9856 74.182 39.518C74.1751 39.0361 74.2567 38.5569 74.4229 38.1032C74.5723 37.6947 74.8064 37.3207 75.1105 37.0048C75.4153 36.693 75.7852 36.4489 76.1951 36.2893C76.6518 36.1149 77.1389 36.0295 77.6292 36.0376ZM75.6451 39.4938C75.6436 39.7781 75.6851 40.061 75.7681 40.3335C75.844 40.5891 75.9674 40.8289 76.132 41.0409C76.2957 41.2487 76.5053 41.4176 76.7452 41.5351C77.0173 41.6659 77.3166 41.7333 77.6199 41.7321C77.9142 41.7437 78.207 41.6862 78.4739 41.5644C78.7169 41.4505 78.9294 41.2827 79.0943 41.0743C79.2619 40.8579 79.3883 40.6139 79.4675 40.3537C79.6336 39.8039 79.6336 39.2189 79.4675 38.6691C79.3906 38.4114 79.2674 38.1691 79.1036 37.9537C78.9409 37.7445 78.7306 37.5754 78.4894 37.4595C78.2167 37.333 77.9175 37.2707 77.6157 37.2776C77.317 37.2713 77.021 37.3336 76.7514 37.4595C76.5096 37.5754 76.2976 37.7429 76.131 37.9496C75.9642 38.1609 75.8393 38.4008 75.7629 38.657C75.6821 38.9288 75.6424 39.2107 75.6451 39.4938Z" fill="#4473C5"/>
<path d="M85.1043 42.9988C84.6299 43.0107 84.1576 42.9325 83.7137 42.7684C83.3529 42.6296 83.0331 42.4053 82.7831 42.1156C82.5383 41.8191 82.362 41.4744 82.2662 41.105C82.1536 40.6705 82.0993 40.2234 82.1049 39.7751V36.127H83.5286V39.8711C83.5274 40.1114 83.5537 40.3511 83.6072 40.5856C83.6542 40.8009 83.7445 41.005 83.8729 41.1859C83.9999 41.3615 84.1684 41.5047 84.364 41.6032C84.6022 41.7169 84.8653 41.7714 85.1302 41.7619C85.3916 41.7707 85.6513 41.7162 85.886 41.6032C86.0815 41.5043 86.2488 41.3595 86.3729 41.1818C86.4971 40.9977 86.5835 40.7918 86.6273 40.5755C86.6776 40.3429 86.7025 40.1058 86.7017 39.8681V36.125H88.1162V39.7731C88.1202 40.218 88.0656 40.6616 87.9538 41.0929C87.8607 41.4669 87.6842 41.8161 87.4369 42.1156C87.1869 42.4053 86.8671 42.6296 86.5063 42.7684C86.0589 42.934 85.5826 43.0122 85.1043 42.9988Z" fill="#4473C5"/>
<path d="M92.2068 36.1253C92.59 36.121 92.9722 36.1645 93.3442 36.2546C93.6609 36.3296 93.9574 36.4702 94.2137 36.6669C94.4583 36.8639 94.6476 37.1184 94.7638 37.4067C94.9002 37.764 94.9621 38.1443 94.9457 38.5254C94.9458 38.8759 94.8755 39.223 94.7389 39.547C94.6164 39.8334 94.4303 40.0895 94.1941 40.2969C93.9506 40.5042 93.6663 40.6607 93.3586 40.7567C93.0179 40.8651 92.6613 40.9187 92.303 40.9153H90.9589V42.9223H89.5352V36.1253H92.2068ZM92.2265 39.6865C92.3981 39.6875 92.5689 39.665 92.7341 39.6198C92.8861 39.5801 93.0275 39.5089 93.1488 39.4111C93.2701 39.3133 93.3684 39.1911 93.4372 39.0529C93.5124 38.8966 93.5526 38.7264 93.5551 38.5537C93.5675 38.1191 93.4479 37.8119 93.1963 37.632C92.9084 37.4427 92.566 37.3485 92.2192 37.3632H90.9599V39.6875L92.2265 39.6865Z" fill="#4473C5"/>
</g>
</g>
<defs>
<clipPath id="clip0_703_8274">
<rect width="105" height="57" fill="white"/>
</clipPath>
<clipPath id="clip1_703_8274">
<rect width="50" height="57.0005" fill="white"/>
</clipPath>
<clipPath id="clip2_703_8274">
<rect width="45" height="30" fill="white" transform="translate(60 13)"/>
</clipPath>
</defs>
</svg>
