<svg width="100" height="108" viewBox="0 0 100 108" fill="none" xmlns="http://www.w3.org/2000/svg">
<path d="M3.17677 27.6522C2.50318 28.016 2.08333 28.7198 2.08333 29.4854V78.5146C2.08333 79.2802 2.50318 79.984 3.17678 80.3478L25.9899 92.6669L49.0101 105.098C49.6279 105.431 50.3721 105.431 50.9899 105.098L96.8232 80.3478C97.4968 79.984 97.9167 79.2802 97.9167 78.5146V29.4854C97.9167 28.7198 97.4968 28.016 96.8232 27.6522L50.9899 2.90222M3.17677 27.6522L50.9899 2.90222M3.17677 27.6522L49.0101 2.90222C49.6279 2.56862 50.3721 2.56862 50.9899 2.90222M3.17677 27.6522L51.9798 1.06908L50.9899 2.90222" fill="#FFBF01" stroke="#FFECB3" stroke-width="4.16667"/>
<path d="M58.8564 47.9421L40.8915 37.5228" stroke="#FFECB3" stroke-width="4" stroke-linecap="round" stroke-linejoin="round"/>
<path d="M69.9304 62.7249V45.2751C69.9296 44.5101 69.7271 43.7588 69.3431 43.0965C68.9592 42.4341 68.4073 41.8841 67.7429 41.5016L52.4304 32.7768C51.7653 32.3939 51.0108 32.1923 50.2429 32.1923C49.4749 32.1923 48.7204 32.3939 48.0554 32.7768L32.7429 41.5016C32.0784 41.8841 31.5266 42.4341 31.1426 43.0965C30.7587 43.7588 30.5561 44.5101 30.5554 45.2751V62.7249C30.5561 63.4899 30.7587 64.2412 31.1426 64.9035C31.5266 65.5659 32.0784 66.1159 32.7429 66.4984L48.0554 75.2232C48.7204 75.6061 49.4749 75.8077 50.2429 75.8077C51.0108 75.8077 51.7653 75.6061 52.4304 75.2232L67.7429 66.4984C68.4073 66.1159 68.9592 65.5659 69.3431 64.9035C69.7271 64.2412 69.9296 63.4899 69.9304 62.7249Z" stroke="#FFECB3" stroke-width="4" stroke-linecap="round" stroke-linejoin="round"/>
<path d="M33.0174 44.3079L50.244 54.0002L67.4705 44.3079" stroke="#FFECB3" stroke-width="4" stroke-linecap="round" stroke-linejoin="round"/>
<path d="M50.2439 75.8077V54" stroke="#FFECB3" stroke-width="4" stroke-linecap="round" stroke-linejoin="round"/>
</svg>
