<svg width="100" height="108" viewBox="0 0 100 108" fill="none" xmlns="http://www.w3.org/2000/svg">
<path d="M3.17677 27.6522C2.50318 28.016 2.08333 28.7198 2.08333 29.4854V78.5146C2.08333 79.2802 2.50318 79.984 3.17678 80.3478L25.9899 92.6669L49.0101 105.098C49.6279 105.431 50.3721 105.431 50.9899 105.098L96.8232 80.3478C97.4968 79.984 97.9167 79.2802 97.9167 78.5146V29.4854C97.9167 28.7198 97.4968 28.016 96.8232 27.6522L50.9899 2.90222M3.17677 27.6522L50.9899 2.90222M3.17677 27.6522L49.0101 2.90222C49.6279 2.56862 50.3721 2.56862 50.9899 2.90222M3.17677 27.6522L51.9798 1.06908L50.9899 2.90222" fill="#FFBF01" stroke="#FFECB3" stroke-width="4.16667"/>
<path d="M43.4375 54L47.8125 58.3615L57.6562 48.5481M62.9088 38.7314C63.3593 39.8174 64.2239 40.6807 65.3126 41.1314L69.1302 42.7079C70.2197 43.1578 71.0853 44.0208 71.5365 45.107C71.9878 46.1931 71.9878 47.4135 71.5365 48.4997L69.9564 52.3029C69.5049 53.3896 69.5043 54.6112 69.9578 55.6973L71.5352 59.4995C71.7589 60.0374 71.8741 60.6141 71.8742 61.1964C71.8743 61.7788 71.7593 62.3555 71.5358 62.8935C71.3122 63.4315 70.9845 63.9204 70.5714 64.3321C70.1583 64.7438 69.6679 65.0704 69.1281 65.2931L65.3133 66.8684C64.2239 67.3175 63.358 68.1795 62.9059 69.2649L61.3246 73.0709C60.8733 74.157 60.0077 75.02 58.9182 75.4699C57.8288 75.9198 56.6046 75.9198 55.5152 75.4699L51.7003 73.8945C50.6108 73.4458 49.3871 73.4467 48.2983 73.8971L44.4807 75.4713C43.3918 75.9202 42.1688 75.9198 41.0802 75.4703C39.9916 75.0207 39.1265 74.1588 38.6749 73.0738L37.0931 69.2667C36.6427 68.1806 35.7781 67.3173 34.6894 66.8666L30.8718 65.2901C29.7828 64.8404 28.9174 63.978 28.466 62.8925C28.0145 61.8069 28.0139 60.5871 28.4643 59.5011L30.0445 55.6978C30.4946 54.6116 30.4937 53.3917 30.0419 52.3062L28.464 48.4974C28.2403 47.9595 28.1251 47.3828 28.125 46.8005C28.1249 46.2181 28.2399 45.6414 28.4635 45.1034C28.687 44.5654 29.0147 44.0765 29.4278 43.6648C29.8409 43.2531 30.3314 42.9265 30.8711 42.7038L34.686 41.1285C35.7744 40.6798 36.6398 39.8189 37.0922 38.7347L38.6735 34.9288C39.1248 33.8426 39.9904 32.9796 41.0799 32.5297C42.1693 32.0798 43.3935 32.0798 44.4829 32.5297L48.2978 34.1051C49.3873 34.5539 50.611 34.553 51.6998 34.1025L55.519 32.5322C56.6083 32.0825 57.8322 32.0826 58.9215 32.5324C60.0107 32.9822 60.8762 33.845 61.3275 34.9308L62.9093 38.738L62.9088 38.7314Z" stroke="#FFECB3" stroke-width="4" stroke-linecap="round" stroke-linejoin="round"/>
</svg>
