<svg width="100" height="108" viewBox="0 0 100 108" fill="none" xmlns="http://www.w3.org/2000/svg">
<path d="M3.17677 27.6522C2.50318 28.016 2.08333 28.7198 2.08333 29.4854V78.5146C2.08333 79.2802 2.50318 79.984 3.17678 80.3478L25.9899 92.6669L49.0101 105.098C49.6279 105.431 50.3721 105.431 50.9899 105.098L96.8232 80.3478C97.4968 79.984 97.9167 79.2802 97.9167 78.5146V29.4854C97.9167 28.7198 97.4968 28.016 96.8232 27.6522L50.9899 2.90222M3.17677 27.6522L50.9899 2.90222M3.17677 27.6522L49.0101 2.90222C49.6279 2.56862 50.3721 2.56862 50.9899 2.90222M3.17677 27.6522L51.9798 1.06908L50.9899 2.90222" fill="#FFBF01" stroke="#FFECB3" stroke-width="4.16667"/>
<path d="M71.8751 57.2308L67.4347 52.9231M67.4347 52.9231L62.9918 57.2308M67.4347 52.9231C67.4347 63.6289 59.1511 73.3846 48.1124 73.3846C37.0737 73.3846 28.1251 64.7058 28.1251 54C28.1251 43.2942 37.0737 34.6154 48.1124 34.6154C55.4454 34.6154 61.856 38.4452 65.3338 44.155M48.1124 43.2308V54L54.7749 58.3077" stroke="#FFECB3" stroke-width="4" stroke-linecap="round" stroke-linejoin="round"/>
</svg>
