<svg width="100" height="108" viewBox="0 0 100 108" fill="none" xmlns="http://www.w3.org/2000/svg">
<path d="M3.17677 27.6522C2.50318 28.016 2.08333 28.7198 2.08333 29.4854V78.5146C2.08333 79.2802 2.50318 79.984 3.17678 80.3478L25.9899 92.6669L49.0101 105.098C49.6279 105.431 50.3721 105.431 50.9899 105.098L96.8232 80.3478C97.4968 79.984 97.9167 79.2802 97.9167 78.5146V29.4854C97.9167 28.7198 97.4968 28.016 96.8232 27.6522L50.9899 2.90222M3.17677 27.6522L50.9899 2.90222M3.17677 27.6522L49.0101 2.90222C49.6279 2.56862 50.3721 2.56862 50.9899 2.90222M3.17677 27.6522L51.9798 1.06908L50.9899 2.90222" fill="#FFBF01" stroke="#FFECB3" stroke-width="4.16667"/>
<path d="M50 62.6154L50 73.3846M63.125 73.3846L54.4813 66.2923C52.8871 64.9843 52.09 64.3302 51.2002 64.0803C50.4157 63.86 49.5843 63.86 48.7998 64.0803C47.91 64.3302 47.1129 64.9843 45.5187 66.2923L36.875 73.3846M41.25 51.8462V54M50 47.5385V54M58.75 43.2308V54M71.875 34.6154L28.125 34.6154M30.3125 34.6154L69.6875 34.6154V52.2769C69.6875 55.8957 69.6875 57.7051 68.9722 59.0873C68.3431 60.3031 67.3391 61.2916 66.1043 61.9111C64.7005 62.6154 62.8628 62.6154 59.1875 62.6154H40.8125C37.1372 62.6154 35.2995 62.6154 33.8957 61.9111C32.6609 61.2916 31.6569 60.3031 31.0278 59.0873C30.3125 57.7051 30.3125 55.8957 30.3125 52.2769L30.3125 34.6154Z" stroke="#FFECB3" stroke-width="4" stroke-linecap="round" stroke-linejoin="round"/>
</svg>
