<svg width="100" height="108" viewBox="0 0 100 108" fill="none" xmlns="http://www.w3.org/2000/svg">
<path d="M3.17677 27.6522C2.50318 28.016 2.08333 28.7198 2.08333 29.4854V78.5146C2.08333 79.2802 2.50318 79.984 3.17678 80.3478L25.9899 92.6669L49.0101 105.098C49.6279 105.431 50.3721 105.431 50.9899 105.098L96.8232 80.3478C97.4968 79.984 97.9167 79.2802 97.9167 78.5146V29.4854C97.9167 28.7198 97.4968 28.016 96.8232 27.6522L50.9899 2.90222M3.17677 27.6522L50.9899 2.90222M3.17677 27.6522L49.0101 2.90222C49.6279 2.56862 50.3721 2.56862 50.9899 2.90222M3.17677 27.6522L51.9798 1.06908L50.9899 2.90222" fill="#FFBF01" stroke="#FFECB3" stroke-width="4.16667"/>
<path d="M48.9062 38.7346H49.8565C56.5223 38.7346 59.8553 38.7346 61.1205 39.9281C62.2141 40.9598 62.6988 42.4796 62.4035 43.9515C62.0619 45.6542 59.3409 47.5729 53.8987 51.4104L45.0075 57.68C39.5654 61.5174 36.8443 63.4361 36.5028 65.1389C36.2075 66.6108 36.6922 68.1306 37.7858 69.1622C39.051 70.3558 42.3839 70.3558 49.0498 70.3558H51.0938M41.25 38.7346C41.25 42.3478 38.3119 45.2769 34.6875 45.2769C31.0631 45.2769 28.125 42.3478 28.125 38.7346C28.125 35.1214 31.0631 32.1923 34.6875 32.1923C38.3119 32.1923 41.25 35.1214 41.25 38.7346ZM71.875 69.2654C71.875 72.8786 68.9369 75.8077 65.3125 75.8077C61.6881 75.8077 58.75 72.8786 58.75 69.2654C58.75 65.6522 61.6881 62.7231 65.3125 62.7231C68.9369 62.7231 71.875 65.6522 71.875 69.2654Z" stroke="#FFECB3" stroke-width="4" stroke-linecap="round" stroke-linejoin="round"/>
</svg>
