<svg width="100" height="108" viewBox="0 0 100 108" fill="none" xmlns="http://www.w3.org/2000/svg">
<path d="M3.17677 27.6522C2.50318 28.016 2.08333 28.7198 2.08333 29.4854V78.5146C2.08333 79.2802 2.50318 79.984 3.17678 80.3478L25.9899 92.6669L49.0101 105.098C49.6279 105.431 50.3721 105.431 50.9899 105.098L96.8232 80.3478C97.4968 79.984 97.9167 79.2802 97.9167 78.5146V29.4854C97.9167 28.7198 97.4968 28.016 96.8232 27.6522L50.9899 2.90222M3.17677 27.6522L50.9899 2.90222M3.17677 27.6522L49.0101 2.90222C49.6279 2.56862 50.3721 2.56862 50.9899 2.90222M3.17677 27.6522L51.9798 1.06908L50.9899 2.90222" fill="#FFBF01" stroke="#FFECB3" stroke-width="4.16667"/>
<path d="M37.847 73.3839C37.847 69.3692 43.288 66.1147 49.9998 66.1147C56.7116 66.1147 62.1526 69.3692 62.1526 73.3839" stroke="#FFECB3" stroke-width="4" stroke-linecap="round" stroke-linejoin="round"/>
<path d="M64.5831 59.4532C68.8753 60.5749 71.8748 63.1367 71.8748 66.1175" stroke="#FFECB3" stroke-width="4" stroke-linecap="round" stroke-linejoin="round"/>
<path d="M35.4168 59.4532C31.1247 60.5749 28.1251 63.1367 28.1251 66.1175" stroke="#FFECB3" stroke-width="4" stroke-linecap="round" stroke-linejoin="round"/>
<path d="M49.9998 58.8454C54.0269 58.8454 57.2915 55.5909 57.2915 51.5762C57.2915 47.5615 54.0269 44.307 49.9998 44.307C45.9727 44.307 42.7081 47.5615 42.7081 51.5762C42.7081 55.5909 45.9727 58.8454 49.9998 58.8454Z" stroke="#FFECB3" stroke-width="4" stroke-linecap="round" stroke-linejoin="round"/>
<path d="M64.5844 49.7259C66.0762 48.3949 67.015 46.4606 67.015 44.3077C67.015 40.293 63.7504 37.0385 59.7233 37.0385C57.8558 37.0385 56.1522 37.7384 54.8622 38.8894" stroke="#FFECB3" stroke-width="4" stroke-linecap="round" stroke-linejoin="round"/>
<path d="M35.4177 49.7259C33.926 48.3949 32.9872 46.4606 32.9872 44.3077C32.9872 40.293 36.2518 37.0385 40.2789 37.0385C42.1464 37.0385 43.8499 37.7384 45.14 38.8894" stroke="#FFECB3" stroke-width="4" stroke-linecap="round" stroke-linejoin="round"/>
</svg>
