<svg width="24" height="25" viewBox="0 0 24 25" fill="none" xmlns="http://www.w3.org/2000/svg">
<path d="M15.6 8.9V13.22C15.6 14.2281 15.6 14.7321 15.4038 15.1172C15.2312 15.4559 14.9559 15.7312 14.6172 15.9038C14.2321 16.1 13.7281 16.1 12.72 16.1H8.4M15.6 8.9H11.28C10.2719 8.9 9.76786 8.9 9.38282 9.09619C9.04413 9.26876 8.76876 9.54413 8.59619 9.88282C8.4 10.2679 8.4 10.7719 8.4 11.78V16.1M15.6 8.9H18.12C19.1281 8.9 19.6321 8.9 20.0172 9.09619C20.3559 9.26876 20.6312 9.54413 20.8038 9.88282C21 10.2679 21 10.7719 21 11.78V18.62C21 19.6281 21 20.1321 20.8038 20.5172C20.6312 20.8559 20.3559 21.1312 20.0172 21.3038C19.6321 21.5 19.1281 21.5 18.12 21.5H11.28C10.2719 21.5 9.76786 21.5 9.38282 21.3038C9.04413 21.1312 8.76876 20.8559 8.59619 20.5172C8.4 20.1321 8.4 19.6281 8.4 18.62V16.1M15.6 8.9V6.38C15.6 5.37191 15.6 4.86786 15.4038 4.48282C15.2312 4.14413 14.9559 3.86876 14.6172 3.69619C14.2321 3.5 13.7281 3.5 12.72 3.5H5.88C4.87191 3.5 4.36786 3.5 3.98282 3.69619C3.64413 3.86876 3.36876 4.14413 3.19619 4.48282C3 4.86786 3 5.37191 3 6.38V13.22C3 14.2281 3 14.7321 3.19619 15.1172C3.36876 15.4559 3.64413 15.7312 3.98282 15.9038C4.36786 16.1 4.87191 16.1 5.88 16.1H8.4" stroke="#191B1F" stroke-width="1.5" stroke-linecap="round" stroke-linejoin="round"/>
</svg>
