<svg width="30" height="34" viewBox="0 0 30 34" fill="none" xmlns="http://www.w3.org/2000/svg">
<path d="M2.53494 7.06354C0.968273 7.95131 0 9.61293 0 11.4136V22.5864C0 24.3871 0.968275 26.0487 2.53494 26.9365L7.5 29.75L12.5349 32.6031C14.0641 33.4697 15.9359 33.4697 17.4651 32.6031L27.4651 26.9365C29.0317 26.0487 30 24.3871 30 22.5864V11.4136C30 9.61293 29.0317 7.95131 27.4651 7.06354L17.4651 1.39687C15.9359 0.530349 14.0641 0.53035 12.5349 1.39687L2.53494 7.06354Z" fill="#C7D5EE"/>
<path d="M18.5413 17.8155L18.9041 15.301H16.6347V13.6699C16.6347 12.9818 16.9511 12.3107 17.9676 12.3107H19V10.1699C19 10.1699 18.0635 10 17.1685 10C15.2986 10 14.0776 11.2046 14.0776 13.3845V15.301H12V17.8155H14.0776V23.8947C14.4947 23.9643 14.9215 24 15.3562 24C15.7909 24 16.2176 23.9643 16.6347 23.8947V17.8155H18.5413Z" fill="#294576"/>
</svg>
