<svg width="30" height="34" viewBox="0 0 30 34" fill="none" xmlns="http://www.w3.org/2000/svg">
<path d="M2.53494 7.06354C0.968273 7.95131 0 9.61293 0 11.4136V22.5864C0 24.3871 0.968275 26.0487 2.53494 26.9365L7.5 29.75L12.5349 32.6031C14.0641 33.4697 15.9359 33.4697 17.4651 32.6031L27.4651 26.9365C29.0317 26.0487 30 24.3871 30 22.5864V11.4136C30 9.61293 29.0317 7.95131 27.4651 7.06354L17.4651 1.39687C15.9359 0.530349 14.0641 0.53035 12.5349 1.39687L2.53494 7.06354Z" fill="#C7D5EE"/>
<path d="M18.5 10H11.5C9.567 10 8 11.567 8 13.5V20.5C8 22.433 9.567 24 11.5 24H18.5C20.433 24 22 22.433 22 20.5V13.5C22 11.567 20.433 10 18.5 10Z" fill="#294576"/>
<path d="M17.7697 16.5892C17.856 17.1718 17.7565 17.7668 17.4853 18.2895C17.214 18.8123 16.7849 19.2362 16.2588 19.501C15.7327 19.7658 15.1366 19.858 14.5551 19.7644C13.9737 19.6708 13.4365 19.3963 13.0201 18.9798C12.6036 18.5634 12.3291 18.0262 12.2355 17.4448C12.142 16.8633 12.2341 16.2672 12.4989 15.7411C12.7637 15.215 13.1876 14.7859 13.7104 14.5146C14.2331 14.2434 14.8281 14.1439 15.4107 14.2302C16.0049 14.3184 16.5551 14.5953 16.9798 15.0201C17.4046 15.4448 17.6815 15.995 17.7697 16.5892Z" stroke="#C7D5EE" stroke-width="1.5" stroke-linecap="round" stroke-linejoin="round"/>
<path d="M19.1962 13.0987C19.207 13.1715 19.1946 13.2459 19.1607 13.3112C19.1268 13.3766 19.0731 13.4296 19.0074 13.4627C18.9416 13.4958 18.8671 13.5073 18.7944 13.4956C18.7217 13.4839 18.6546 13.4496 18.6025 13.3975C18.5505 13.3455 18.5161 13.2783 18.5044 13.2057C18.4927 13.133 18.5043 13.0585 18.5374 12.9927C18.5705 12.9269 18.6235 12.8733 18.6888 12.8394C18.7541 12.8055 18.8285 12.793 18.9013 12.8038C18.9756 12.8148 19.0444 12.8495 19.0975 12.9026C19.1506 12.9557 19.1852 13.0244 19.1962 13.0987Z" stroke="#C7D5EE" stroke-width="1.5" stroke-linecap="round" stroke-linejoin="round"/>
</svg>
