<svg width="30" height="34" viewBox="0 0 30 34" fill="none" xmlns="http://www.w3.org/2000/svg">
<path d="M2.53494 7.06354C0.968273 7.95131 0 9.61293 0 11.4136V22.5864C0 24.3871 0.968275 26.0487 2.53494 26.9365L7.5 29.75L12.5349 32.6031C14.0641 33.4697 15.9359 33.4697 17.4651 32.6031L27.4651 26.9365C29.0317 26.0487 30 24.3871 30 22.5864V11.4136C30 9.61293 29.0317 7.95131 27.4651 7.06354L17.4651 1.39687C15.9359 0.530349 14.0641 0.53035 12.5349 1.39687L2.53494 7.06354Z" fill="#C7D5EE"/>
<path fill-rule="evenodd" clip-rule="evenodd" d="M7.96243 16.5964C11.7205 14.7618 14.2265 13.5523 15.4804 12.968C19.0604 11.2995 19.8043 11.0097 20.2892 11.0001C20.3959 10.998 20.6343 11.0276 20.7887 11.168C20.9192 11.2866 20.9551 11.4468 20.9722 11.5592C20.9894 11.6716 21.0108 11.9277 20.9938 12.1278C20.7998 14.4118 19.9603 19.9545 19.5332 22.5127C19.3525 23.5951 18.9967 23.958 18.6522 23.9936C17.9036 24.0707 17.3351 23.4392 16.6101 22.9067C15.4755 22.0733 14.8345 21.5545 13.7332 20.7413C12.4604 19.8015 13.2855 19.285 14.0108 18.4409C14.2006 18.22 17.4991 14.8583 17.5629 14.5533C17.5709 14.5152 17.5783 14.373 17.503 14.298C17.4276 14.2229 17.3163 14.2486 17.236 14.269C17.1223 14.2979 15.3097 15.6403 11.7984 18.2961C11.2839 18.6919 10.8179 18.8848 10.4004 18.8747C9.9401 18.8635 9.05469 18.5831 8.39648 18.3433C7.58916 18.0493 6.94752 17.8938 7.00339 17.3944C7.03249 17.1343 7.35217 16.8683 7.96243 16.5964Z" fill="#294576"/>
</svg>
