<svg width="30" height="34" viewBox="0 0 30 34" fill="none" xmlns="http://www.w3.org/2000/svg">
<path d="M2.53494 7.06354C0.968273 7.95131 0 9.61293 0 11.4136V22.5864C0 24.3871 0.968275 26.0487 2.53494 26.9365L7.5 29.75L12.5349 32.6031C14.0641 33.4697 15.9359 33.4697 17.4651 32.6031L27.4651 26.9365C29.0317 26.0487 30 24.3871 30 22.5864V11.4136C30 9.61293 29.0317 7.95131 27.4651 7.06354L17.4651 1.39687C15.9359 0.530349 14.0641 0.53035 12.5349 1.39687L2.53494 7.06354Z" fill="#C7D5EE"/>
<path d="M7.00321 25L8.08481 21.0256C7.37212 19.8039 6.99769 18.4144 7.00001 17C7.00001 12.5816 10.5816 9 15 9C19.4184 9 23 12.5816 23 17C23 21.4184 19.4184 25 15 25C13.5862 25.0023 12.1973 24.6281 10.976 23.916L7.00321 25ZM12.1128 13.2464C12.0095 13.2528 11.9085 13.28 11.816 13.3264C11.7292 13.3755 11.65 13.437 11.5808 13.5088C11.4848 13.5992 11.4304 13.6776 11.372 13.7536C11.0763 14.1384 10.9173 14.6107 10.92 15.096C10.9216 15.488 11.024 15.8696 11.184 16.2264C11.5112 16.948 12.0496 17.712 12.7608 18.42C12.932 18.5904 13.0992 18.7616 13.2792 18.9208C14.1619 19.698 15.2138 20.2584 16.3512 20.5576L16.8064 20.6272C16.9544 20.6352 17.1024 20.624 17.2512 20.6168C17.4842 20.6048 17.7117 20.5417 17.9176 20.432C18.0224 20.378 18.1246 20.3193 18.224 20.256C18.224 20.256 18.2584 20.2336 18.324 20.184C18.432 20.104 18.4984 20.0472 18.588 19.9536C18.6544 19.8848 18.712 19.804 18.756 19.712C18.8184 19.5816 18.8808 19.3328 18.9064 19.1256C18.9256 18.9672 18.92 18.8808 18.9176 18.8272C18.9144 18.7416 18.8432 18.6528 18.7656 18.6152L18.3 18.4064C18.3 18.4064 17.604 18.1032 17.1792 17.9096C17.1344 17.8901 17.0864 17.879 17.0376 17.8768C16.9829 17.8712 16.9276 17.8773 16.8754 17.8949C16.8232 17.9124 16.7754 17.9409 16.7352 17.9784V17.9768C16.7312 17.9768 16.6776 18.0224 16.0992 18.7232C16.066 18.7678 16.0203 18.8015 15.9678 18.82C15.9154 18.8386 15.8587 18.8411 15.8048 18.8272C15.7527 18.8133 15.7016 18.7956 15.652 18.7744C15.5528 18.7328 15.5184 18.7168 15.4504 18.6872L15.4464 18.6856C14.9887 18.4858 14.565 18.2159 14.1904 17.8856C14.0896 17.7976 13.996 17.7016 13.9 17.6088C13.5853 17.3074 13.311 16.9664 13.084 16.5944L13.0368 16.5184C13.0029 16.4673 12.9755 16.4122 12.9552 16.3544C12.9248 16.2368 13.004 16.1424 13.004 16.1424C13.004 16.1424 13.1984 15.9296 13.2888 15.8144C13.3641 15.7187 13.4343 15.6191 13.4992 15.516C13.5936 15.364 13.6232 15.208 13.5736 15.0872C13.3496 14.54 13.1176 13.9952 12.8792 13.4544C12.832 13.3472 12.692 13.2704 12.5648 13.2552C12.5216 13.2504 12.4784 13.2456 12.4352 13.2424C12.3278 13.2371 12.2201 13.2389 12.1128 13.2464Z" fill="#294576"/>
</svg>
