<svg width="65" height="70" viewBox="0 0 65 70" fill="none" xmlns="http://www.w3.org/2000/svg">
<path d="M1.0518 16.9336C0.40398 17.2825 0 17.9588 0 18.6946V51.3054C0 52.0412 0.403981 52.7175 1.0518 53.0664L16.25 61.25L31.5518 69.4894C32.1438 69.8082 32.8562 69.8082 33.4482 69.4894L63.9482 53.0664C64.596 52.7175 65 52.0412 65 51.3054V18.6946C65 17.9588 64.596 17.2825 63.9482 16.9336L33.4482 0.510568C32.8562 0.191825 32.1438 0.191825 31.5518 0.510569L1.0518 16.9336Z" fill="#4473C5"/>
<path d="M29 34.3077L31.8 37L37 32" stroke="#4473C5" stroke-width="2" stroke-linecap="round"/>
<path fill-rule="evenodd" clip-rule="evenodd" d="M18.0327 36.1791C18.0908 36.4365 18.1946 36.6033 18.4021 36.9371C20.1169 39.6949 25.2213 46.6667 33 46.6667C40.7787 46.6667 45.8831 39.6949 47.5979 36.9371C47.8054 36.6033 47.9092 36.4365 47.9673 36.1791C48.0109 35.9858 48.0109 35.6809 47.9673 35.4876C47.9092 35.2302 47.8054 35.0633 47.5979 34.7296C45.8831 31.9718 40.7787 25 33 25C25.2213 25 20.1169 31.9718 18.4021 34.7296C18.1946 35.0633 18.0908 35.2302 18.0327 35.4876C17.9891 35.6809 17.9891 35.9858 18.0327 36.1791ZM33 40.4762C35.5246 40.4762 37.5712 38.3975 37.5712 35.8333C37.5712 33.2692 35.5246 31.1905 33 31.1905C30.4754 31.1905 28.4288 33.2692 28.4288 35.8333C28.4288 38.3975 30.4754 40.4762 33 40.4762Z" fill="#C7D5EE" stroke="#F9FAFB" stroke-width="2.5" stroke-linecap="round" stroke-linejoin="round"/>
</svg>
