<svg width="65" height="70" viewBox="0 0 65 70" fill="none" xmlns="http://www.w3.org/2000/svg">
<path d="M1.0518 16.9336C0.40398 17.2825 0 17.9588 0 18.6946V51.3054C0 52.0412 0.403981 52.7175 1.0518 53.0664L16.25 61.25L31.5518 69.4894C32.1438 69.8082 32.8562 69.8082 33.4482 69.4894L63.9482 53.0664C64.596 52.7175 65 52.0412 65 51.3054V18.6946C65 17.9588 64.596 17.2825 63.9482 16.9336L33.4482 0.510568C32.8562 0.191825 32.1438 0.191825 31.5518 0.510569L1.0518 16.9336Z" fill="#4473C5"/>
<path d="M29 34.3077L31.8 37L37 32" stroke="#4473C5" stroke-width="2" stroke-linecap="round"/>
<path d="M35.9167 20V26.6001C35.9167 27.4402 35.9167 27.8602 36.0757 28.1811C36.2155 28.4633 36.4386 28.6928 36.713 28.8366C37.0249 29.0001 37.4333 29.0001 38.25 29.0001H44.6667L35.9167 20Z" fill="#C7D5EE"/>
<path d="M35.9167 20V26.6001C35.9167 27.4402 35.9167 27.8602 36.0757 28.1811C36.2155 28.4633 36.4386 28.6928 36.713 28.8366C37.0249 29.0001 37.4333 29.0001 38.25 29.0001H44.6667M35.9167 20H28.3334C25.8831 20 24.658 20 23.7222 20.4905C22.899 20.9219 22.2297 21.6103 21.8102 22.457C21.3334 23.4196 21.3334 24.6798 21.3334 27.2V42.8C21.3334 45.3202 21.3334 46.5804 21.8102 47.543C22.2297 48.3897 22.899 49.0781 23.7222 49.5095C24.658 50 25.8831 50 28.3334 50H37.6667C40.1169 50 41.3421 50 42.2779 49.5095C43.1011 49.0781 43.7704 48.3897 44.1899 47.543C44.6667 46.5804 44.6667 45.3202 44.6667 42.8V29.0001M35.9167 20L44.6667 29.0001" stroke="#F9FAFB" stroke-width="2.5" stroke-linecap="round" stroke-linejoin="round"/>
<path d="M26.3334 30H31.3334" stroke="#F9FAFB" stroke-width="2.5" stroke-linecap="round"/>
<path d="M26.3334 36.6667H39.6667" stroke="#F9FAFB" stroke-width="2.5" stroke-linecap="round"/>
<path d="M26.3334 43.3333H39.6667" stroke="#F9FAFB" stroke-width="2.5" stroke-linecap="round"/>
</svg>
