<svg width="65" height="70" viewBox="0 0 65 70" fill="none" xmlns="http://www.w3.org/2000/svg">
<path d="M1.0518 16.9336C0.40398 17.2825 0 17.9588 0 18.6946V51.3054C0 52.0412 0.403981 52.7175 1.0518 53.0664L16.25 61.25L31.5518 69.4894C32.1438 69.8082 32.8562 69.8082 33.4482 69.4894L63.9482 53.0664C64.596 52.7175 65 52.0412 65 51.3054V18.6946C65 17.9588 64.596 17.2825 63.9482 16.9336L33.4482 0.510568C32.8562 0.191825 32.1438 0.191825 31.5518 0.510569L1.0518 16.9336Z" fill="#4473C5"/>
<path d="M29 34.3077L31.8 37L37 32" stroke="#4473C5" stroke-width="2" stroke-linecap="round"/>
<path d="M23.5 40.05C23.5 40.05 24.8125 38.7 28.75 38.7C32.6875 38.7 35.3125 41.4 39.25 41.4C43.1875 41.4 44.5 40.05 44.5 40.05V23.85C44.5 23.85 43.1875 25.2 39.25 25.2C35.3125 25.2 32.6875 22.5 28.75 22.5C24.8125 22.5 23.5 23.85 23.5 23.85V40.05Z" fill="#C7D5EE"/>
<path d="M23.5 23.85C23.5 23.85 24.8125 22.5 28.75 22.5C32.6875 22.5 35.3125 25.2 39.25 25.2C43.1875 25.2 44.5 23.85 44.5 23.85V40.05C44.5 40.05 43.1875 41.4 39.25 41.4C35.3125 41.4 32.6875 38.7 28.75 38.7C24.8125 38.7 23.5 40.05 23.5 40.05V23.85ZM23.5 23.85L23.5 49.5" stroke="#F9FAFB" stroke-width="2.25" stroke-linecap="round" stroke-linejoin="round"/>
</svg>
