<svg width="65" height="70" viewBox="0 0 65 70" fill="none" xmlns="http://www.w3.org/2000/svg">
<path d="M1.0518 16.9336C0.40398 17.2825 0 17.9588 0 18.6946V51.3054C0 52.0412 0.403981 52.7175 1.0518 53.0664L16.25 61.25L31.5518 69.4894C32.1438 69.8082 32.8562 69.8082 33.4482 69.4894L63.9482 53.0664C64.596 52.7175 65 52.0412 65 51.3054V18.6946C65 17.9588 64.596 17.2825 63.9482 16.9336L33.4482 0.510568C32.8562 0.191825 32.1438 0.191825 31.5518 0.510569L1.0518 16.9336Z" fill="#4473C5"/>
<path d="M20 30.5007C20 28.2252 20 27.0875 20.4541 26.2184C20.8536 25.4539 21.491 24.8324 22.275 24.4428C23.1663 24 24.3331 24 26.6667 24H38.3333C40.6669 24 41.8337 24 42.725 24.4428C43.509 24.8324 44.1464 25.4539 44.5459 26.2184C45 27.0875 45 28.2252 45 30.5007V37.8139C45 40.0893 45 41.227 44.5459 42.0962C44.1464 42.8606 43.509 43.4822 42.725 43.8717C41.8337 44.3145 40.6669 44.3145 38.3333 44.3145H34.8385C33.9718 44.3145 33.5384 44.3145 33.1239 44.3975C32.7561 44.4711 32.4003 44.5928 32.066 44.7594C31.6891 44.9471 31.3507 45.2111 30.6739 45.739L27.3608 48.3235C26.7829 48.7743 26.4939 48.9997 26.2507 49C26.0393 49.0002 25.8392 48.9065 25.7073 48.7453C25.5556 48.56 25.5556 48.1992 25.5556 47.4775V44.3145C24.2639 44.3145 23.6181 44.3145 23.0883 44.1761C21.6504 43.8004 20.5273 42.7053 20.142 41.3032C20 40.7865 20 40.1568 20 38.8973V30.5007Z" fill="#C7D5EE" stroke="#F9FAFB" stroke-width="2.5" stroke-linecap="round" stroke-linejoin="round"/>
<path d="M29 34.3077L31.8 37L37 32" stroke="#F9FAFB" stroke-width="2" stroke-linecap="round"/>
</svg>
