<svg width="65" height="70" viewBox="0 0 65 70" fill="none" xmlns="http://www.w3.org/2000/svg">
<path d="M1.0518 16.9336C0.40398 17.2825 0 17.9588 0 18.6946V51.3054C0 52.0412 0.403981 52.7175 1.0518 53.0664L16.25 61.25L31.5518 69.4894C32.1438 69.8082 32.8562 69.8082 33.4482 69.4894L63.9482 53.0664C64.596 52.7175 65 52.0412 65 51.3054V18.6946C65 17.9588 64.596 17.2825 63.9482 16.9336L33.4482 0.510568C32.8562 0.191825 32.1438 0.191825 31.5518 0.510569L1.0518 16.9336Z" fill="#4473C5"/>
<path d="M45.3413 27.8085L31.2105 35L17.4178 27.2546C17.59 27.0745 17.8265 26.9479 18.2994 26.6946L24.1053 23.5857L29.9836 20.4379C30.4314 20.1981 30.6553 20.0782 30.8924 20.0312C31.1023 19.9896 31.3188 19.9896 31.5286 20.0312C31.7657 20.0782 31.9896 20.1981 32.4374 20.4379L44.1216 26.6946C44.5946 26.9479 44.831 27.0745 45.0032 27.2546C45.1555 27.4139 45.2708 27.6028 45.3413 27.8085Z" fill="#C7D5EE"/>
<path d="M45.3413 27.8085L31.2105 35M45.3413 27.8085C45.4211 28.041 45.4211 28.3018 45.4211 28.8232L45.4211 35.761M45.3413 27.8085C45.2708 27.6028 45.1555 27.4139 45.0032 27.2546C44.831 27.0745 44.5946 26.9479 44.1216 26.6946L32.4374 20.4379C31.9896 20.1981 31.7657 20.0782 31.5286 20.0312C31.3188 19.9896 31.1023 19.9896 30.8924 20.0312C30.6553 20.0782 30.4314 20.1981 29.9836 20.4379M31.2105 35L17.4178 27.2546M31.2105 35L31.2105 49.4581M17.4178 27.2546C17.59 27.0745 17.8265 26.9479 18.2994 26.6946M17.4178 27.2546C17.2655 27.4139 17.1502 27.6028 17.0797 27.8085C17 28.041 17 28.3018 17 28.8233V41.1768C17 41.6982 17 41.959 17.0797 42.1915C17.1502 42.3972 17.2655 42.5861 17.4178 42.7454C17.59 42.9255 17.8265 43.0521 18.2994 43.3054L29.9836 49.5621C30.4314 49.8019 30.6553 49.9218 30.8924 49.9688C31.1023 50.0104 31.3188 50.0104 31.5286 49.9688C31.7657 49.9218 31.9896 49.8019 32.4374 49.5621L34.3684 48.5281M18.2994 26.6946L29.9836 20.4379M18.2994 26.6946L24.1053 23.5857M29.9836 20.4379L24.1053 23.5857M24.1053 23.5857L38.3158 31.1952M37.5263 44.1315L40.6842 47.1753L47 41.0876" stroke="#F9FAFB" stroke-width="2.5" stroke-linecap="round" stroke-linejoin="round"/>
</svg>
