<svg width="65" height="70" viewBox="0 0 65 70" fill="none" xmlns="http://www.w3.org/2000/svg">
<path d="M1.0518 16.9336C0.40398 17.2825 0 17.9588 0 18.6946V51.3054C0 52.0412 0.403981 52.7175 1.0518 53.0664L16.25 61.25L31.5518 69.4894C32.1438 69.8082 32.8562 69.8082 33.4482 69.4894L63.9482 53.0664C64.596 52.7175 65 52.0412 65 51.3054V18.6946C65 17.9588 64.596 17.2825 63.9482 16.9336L33.4482 0.510568C32.8562 0.191825 32.1438 0.191825 31.5518 0.510569L1.0518 16.9336Z" fill="#4473C5"/>
<path d="M29 34.3077L31.8 37L37 32" stroke="#4473C5" stroke-width="2" stroke-linecap="round"/>
<path d="M33.2 21.6667H21.8C20.1198 21.6667 19.2798 21.6667 18.638 21.9897C18.0735 22.2738 17.6146 22.727 17.327 23.2846C17 23.9184 17 24.7481 17 26.4075V36.1853C17 37.8447 17 38.6744 17.327 39.3082C17.6146 39.8657 18.0735 40.319 18.638 40.6031C19.2798 40.926 20.1198 40.926 21.8 40.926H23.75H38V29.0742V26.4075C38 24.7481 38 23.9184 37.673 23.2846C37.3854 22.727 36.9265 22.2738 36.362 21.9897C35.7202 21.6667 34.8802 21.6667 33.2 21.6667Z" fill="#C7D5EE"/>
<path d="M38 29.0742V40.926H40.25H44.6C45.4401 40.926 45.8601 40.926 46.181 40.7645C46.4632 40.6225 46.6927 40.3959 46.8365 40.1171C47 39.8002 47 39.3853 47 38.5556V34.5004C47 34.1381 47 33.9569 46.9586 33.7864C46.9218 33.6352 46.8612 33.4907 46.779 33.3582C46.6862 33.2087 46.5565 33.0806 46.2971 32.8243L43.2029 29.7684C42.9435 29.5122 42.8138 29.3841 42.6624 29.2925C42.5282 29.2112 42.3819 29.1514 42.2288 29.1151C42.0562 29.0742 41.8728 29.0742 41.5059 29.0742H38Z" fill="#C7D5EE"/>
<path d="M38 26.4075V40.926M38 26.4075C38 24.7481 38 23.9184 37.673 23.2846C37.3854 22.727 36.9265 22.2738 36.362 21.9897C35.7202 21.6667 34.8802 21.6667 33.2 21.6667H21.8C20.1198 21.6667 19.2798 21.6667 18.638 21.9897C18.0735 22.2738 17.6146 22.727 17.327 23.2846C17 23.9184 17 24.7481 17 26.4075V36.1853C17 37.8447 17 38.6744 17.327 39.3082C17.6146 39.8657 18.0735 40.319 18.638 40.6031C19.2798 40.926 20.1198 40.926 21.8 40.926M38 26.4075V29.0742M38 40.926H21.8M38 40.926H44.6M38 40.926H23.75M38 40.926V29.0742M38 40.926H40.25M21.8 40.926H23.75M38 29.0742H41.5059C41.8728 29.0742 42.0562 29.0742 42.2288 29.1151C42.3819 29.1514 42.5282 29.2112 42.6624 29.2925C42.8138 29.3841 42.9435 29.5122 43.2029 29.7684L46.2971 32.8243C46.5565 33.0806 46.6862 33.2087 46.779 33.3582C46.8612 33.4907 46.9218 33.6352 46.9586 33.7864C47 33.9569 47 34.1381 47 34.5004V38.5556C47 39.3853 47 39.8002 46.8365 40.1171C46.6927 40.3959 46.4632 40.6225 46.181 40.7645C45.8601 40.926 45.4401 40.926 44.6 40.926M44.6 40.926H40.25M23.75 40.926C21.6789 40.926 20 42.5842 20 44.6297C20 46.6752 21.6789 48.3334 23.75 48.3334C25.8211 48.3334 27.5 46.6752 27.5 44.6297C27.5 42.5842 25.8211 40.926 23.75 40.926ZM40.25 40.926C38.1789 40.926 36.5 42.5842 36.5 44.6297C36.5 46.6752 38.1789 48.3334 40.25 48.3334C42.3211 48.3334 44 46.6752 44 44.6297C44 42.5842 42.3211 40.926 40.25 40.926Z" stroke="#F9FAFB" stroke-width="2.5" stroke-linecap="round" stroke-linejoin="round"/>
</svg>
