<svg width="50" height="50" viewBox="0 0 50 50" fill="none" xmlns="http://www.w3.org/2000/svg">
<path d="M19 27C21.2091 27 23 25.2091 23 23C23 20.7909 21.2091 19 19 19C16.7909 19 15 20.7909 15 23C15 25.2091 16.7909 27 19 27Z" fill="#FFBF01"/>
<path d="M19 33C15.134 33 12 36.134 12 40H26C26 36.134 22.866 33 19 33Z" fill="#FFBF01"/>
<path d="M37.5 22.9167L31.25 22.9167" stroke="#FFBF01" stroke-width="1.5" stroke-linecap="round" stroke-linejoin="round"/>
<path d="M37.5 29.1667L31.25 29.1667" stroke="#FFBF01" stroke-width="1.5" stroke-linecap="round" stroke-linejoin="round"/>
<path d="M6.25 14.5834C6.25 12.2822 8.11548 10.4167 10.4167 10.4167H39.5833C41.8845 10.4167 43.75 12.2822 43.75 14.5834V35.4167C43.75 37.7179 41.8845 39.5834 39.5833 39.5834H10.4167C8.11548 39.5834 6.25 37.7179 6.25 35.4167V14.5834Z" stroke="#FFBF01" stroke-width="1.5" stroke-linecap="round" stroke-linejoin="round"/>
</svg>
