<svg width="80" height="88" viewBox="0 0 80 88" fill="none" xmlns="http://www.w3.org/2000/svg">
<path d="M1 24.9564C1 23.4976 1.79413 22.1545 3.07232 21.4515L38.0723 2.20149C39.2727 1.54131 40.7273 1.54131 41.9277 2.20149L76.9277 21.4515C78.2059 22.1545 79 23.4976 79 24.9564V63.0436C79 64.5024 78.2059 65.8455 76.9277 66.5485L41.9277 85.7985C40.7273 86.4587 39.2727 86.4587 38.0723 85.7985L20.4819 76.1238L3.07233 66.5485C1.79413 65.8455 1 64.5024 1 63.0436V24.9564Z" stroke="#191B1F" stroke-width="2"/>
<path d="M51.6668 43.9997L40.0002 32.333M40.0002 32.333L28.3335 43.9997M40.0002 32.333L40.0002 55.6663" stroke="#191B1F" stroke-width="2" stroke-linecap="round" stroke-linejoin="round"/>
</svg>